<?xml version="1.0" encoding="UTF-8"?>
<!DOCTYPE svg PUBLIC "-//W3C//DTD SVG 1.1//EN" "http://www.w3.org/Graphics/SVG/1.1/DTD/svg11.dtd">
<!-- Creator: CorelDRAW 2017 -->
<svg xmlns="http://www.w3.org/2000/svg" xml:space="preserve" width="870px" height="115px" version="1.1" style="shape-rendering:geometricPrecision; text-rendering:geometricPrecision; image-rendering:optimizeQuality; fill-rule:evenodd; clip-rule:evenodd"
viewBox="0 0 632 84"
 xmlns:xlink="http://www.w3.org/1999/xlink">
 <defs>
  <style type="text/css">
   <![CDATA[
    .fil1 {fill:#FEFEFE}
    .fil0 {fill:#188BC4}
    .fil2 {fill:white;fill-rule:nonzero}
   ]]>
  </style>
 </defs>
 <g id="Layer_x0020_1">
  <metadata id="CorelCorpID_0Corel-Layer"/>
  <g id="_2164257598704">
   <polygon class="fil0" points="600,0 632,0 581,84 551,84 "/>
   <rect class="fil0" x="103" width="10" height="84"/>
   <path class="fil1" d="M55 71l-43 0 0 -5 10 -6 0 -37 -10 -6 0 -5 46 0 14 14 0 27 -12 0c-2,0 -3,1 -4,2l0 0c-1,1 -2,3 -2,4l0 12zm-47 -71l54 0c0,0 1,0 2,0 1,0 1,1 2,1l20 20c0,0 0,1 1,1 0,0 0,1 0,1l0 38c0,1 0,1 0,2 0,1 -1,1 -1,1l-19 19c0,0 -1,1 -1,1 0,0 -1,0 -1,0l-55 0c-3,0 -5,-1 -6,-2 -1,-1 -2,-3 -2,-5l0 -15c0,-1 0,-2 1,-2 0,-1 1,-1 2,-1l8 -4 0 -23 -8 -4c-1,0 -1,-1 -2,-2 0,-1 -1,-1 -1,-2l0 -14c0,-2 0,-4 2,-6 1,-1 3,-2 6,-2zm-2 22l10 6 0 29 -10 6 0 14c0,2 1,2 2,2l54 0 19 -19 0 -36 -19 -19 -54 0c-2,0 -2,0 -2,2l0 14zm67 36l-13 13 0 -11c0,-1 0,-1 1,-2l0 0c0,0 1,-1 2,-1l11 0z"/>
   <path class="fil2" d="M172 41c0,10 -2,16 -6,20 -3,3 -8,4 -15,4l-20 0 0 -44 20 0c8,0 14,2 17,7 2,3 4,8 4,14zm-10 2c0,-6 -1,-11 -3,-13 -1,-1 -4,-2 -8,-2l-11 0 0 29 11 0c4,0 7,-1 9,-3 2,-2 2,-6 2,-12zm24 -14l-9 0 0 -8 9 0 0 8zm0 36l-9 0 0 -32 9 0 0 32zm38 -1c0,4 -1,7 -3,10 -2,2 -5,3 -9,3l-17 0 0 -6 15 0c3,0 5,-2 5,-5l-8 0c-4,0 -7,-1 -10,-3 -4,-3 -6,-7 -6,-13 0,-5 1,-9 4,-12 3,-3 7,-4 12,-4l15 0 0 31zm-8 -5l0 -19 -5 0c-4,0 -7,1 -8,3 -1,2 -2,4 -2,7 0,3 1,5 2,7 1,2 4,3 8,3l6 0zm24 -30l-9 0 0 -8 9 0 0 8zm0 36l-9 0 0 -32 9 0 0 32zm28 0l-8 0c-3,0 -5,-1 -7,-3 -2,-2 -3,-4 -3,-7l0 -16 -6 0 0 -6 6 0 0 -12 8 0 0 12 9 0 0 6 -9 0 0 13c0,2 0,3 1,5 1,1 2,2 3,2l5 0 0 7zm36 0l-23 0c-3,0 -6,-1 -7,-3 -2,-2 -3,-4 -3,-7 0,-4 1,-6 3,-8 2,-2 5,-2 10,-2l11 0c0,-2 -1,-4 -2,-5 -1,-1 -3,-1 -6,-1l-14 0 0 -7 17 0c3,0 6,0 8,1 3,2 5,5 5,11l0 20zm-9 -6l0 -7 -10 0c-2,0 -3,0 -4,1 -1,1 -2,2 -2,3 0,1 0,2 1,3 1,1 2,1 3,1l11 0zm25 6l-9 0 0 -44 9 0 0 44zm68 -22c0,8 -2,14 -7,18 -4,3 -9,5 -15,5 -3,0 -6,0 -9,-1 -4,-1 -7,-3 -9,-6 -3,-4 -4,-9 -4,-16 0,-6 1,-11 3,-15 2,-3 5,-5 8,-6 3,-1 6,-1 10,-1 6,0 11,1 15,4 3,2 5,5 6,9 1,3 1,6 1,11zm-10 0c0,-6 -1,-10 -3,-12 -2,-2 -5,-3 -9,-3 -4,0 -7,1 -9,4 -2,3 -3,6 -3,12 0,5 1,8 2,11 2,3 5,5 10,5 4,0 8,-1 10,-4 2,-2 3,-6 3,-11zm35 -4l-8 0 0 26 -9 0 0 -26 -6 0 0 -6 6 0 0 -2c0,0 0,-1 0,-1 0,0 0,-1 0,-1 0,-2 0,-4 1,-5 1,-2 4,-3 8,-3l8 0 0 6 -3 0c-2,0 -3,0 -4,1 -1,1 -1,2 -1,3l0 2 8 0 0 6zm26 0l-8 0 0 26 -9 0 0 -26 -6 0 0 -6 6 0 0 -2c0,0 0,-1 0,-1 0,0 0,-1 0,-1 0,-2 0,-4 1,-5 1,-2 4,-3 8,-3l8 0 0 6 -3 0c-2,0 -3,0 -4,1 -1,1 -1,2 -1,3l0 2 8 0 0 6zm34 16c0,3 -1,6 -2,8 -2,2 -4,3 -6,3l-22 0 0 -6 18 0c3,0 5,-1 5,-3 0,-2 -2,-3 -5,-3l-7 0c-1,0 -1,0 -2,0 -2,0 -4,0 -6,-1 -2,-1 -3,-4 -3,-8 0,-7 4,-10 11,-10l18 0 0 7 -16 0c-3,0 -4,1 -4,3l0 1c0,2 2,3 4,3l8 0c3,0 6,1 7,2 2,1 3,4 3,7zm33 11l-12 0c-5,0 -9,-1 -12,-4 -3,-3 -4,-7 -4,-12 0,-6 2,-11 6,-14 3,-2 6,-3 10,-3l12 0 0 7 -11 0c-3,0 -5,0 -6,1 -1,1 -2,3 -2,5l19 0 0 7 -19 0c0,2 1,4 2,5 1,1 3,1 6,1l11 0 0 6zm27 0l-8 0c-3,0 -5,-1 -7,-3 -2,-2 -3,-4 -3,-7l0 -16 -6 0 0 -6 6 0 0 -12 8 0 0 12 9 0 0 6 -9 0 0 13c0,2 0,3 1,5 1,1 2,2 3,2l5 0 0 7z"/>
  </g>
 </g>
</svg>
